<?xml version="1.0" standalone="no"?>
<!DOCTYPE svg PUBLIC "-//W3C//DTD SVG 20010904//EN"
 "http://www.w3.org/TR/2001/REC-SVG-20010904/DTD/svg10.dtd">
<svg version="1.0" xmlns="http://www.w3.org/2000/svg"
 width="1529.000000pt" height="1746.000000pt" viewBox="0 0 1529.000000 1746.000000"
 preserveAspectRatio="xMidYMid meet">

<g transform="translate(0.000000,1746.000000) scale(0.100000,-0.100000)"
fill="#000000" stroke="none">
<path d="M7510 14201 c-62 -20 -112 -64 -536 -475 -501 -485 -504 -489 -504
-605 1 -101 19 -131 201 -319 89 -92 395 -408 679 -702 793 -821 797 -825 854
-844 63 -21 120 -20 182 1 38 13 74 41 164 127 63 61 135 129 158 151 l44 40
75 -80 74 -80 -215 -210 c-119 -116 -220 -223 -226 -238 -15 -42 -12 -92 7
-132 l17 -35 -31 -33 c-39 -40 -53 -75 -53 -133 0 -63 20 -96 124 -202 l90
-93 -59 -59 -60 -60 -53 36 c-128 86 -321 165 -477 195 -91 17 -310 18 -407 0
l-77 -14 -35 31 c-40 35 -85 47 -155 40 -55 -5 -98 -32 -138 -85 -36 -46 -44
-142 -18 -197 10 -20 135 -157 278 -304 143 -147 288 -296 323 -332 l62 -65
-73 -130 -72 -130 -56 -7 c-74 -9 -116 -28 -167 -74 -136 -123 -113 -337 47
-431 34 -20 63 -27 119 -31 65 -4 80 -2 128 22 95 46 156 141 156 242 l0 42
125 71 c69 39 129 71 134 71 5 0 149 -144 321 -319 230 -236 322 -324 351
-335 193 -78 361 139 240 310 l-31 44 16 63 c25 103 29 287 9 407 -27 162 -93
341 -175 476 l-19 30 62 62 63 63 77 -85 c93 -102 144 -131 218 -124 31 3 61
14 77 27 62 49 71 54 86 42 29 -24 79 -32 129 -20 45 10 67 29 263 222 l215
210 35 -34 c20 -19 54 -56 77 -82 l40 -49 -160 -156 c-144 -141 -163 -163
-178 -211 -22 -68 -16 -145 16 -206 37 -70 1616 -1695 1683 -1731 41 -23 63
-28 116 -28 116 1 123 6 475 353 127 124 313 307 413 405 101 99 193 198 205
220 32 61 31 165 -3 229 -16 30 -169 195 -435 469 -225 231 -587 604 -803 827
-439 454 -453 466 -562 466 -96 0 -134 -24 -309 -192 l-152 -146 -75 74 c-41
40 -74 78 -73 84 1 5 88 93 195 195 106 102 203 201 216 220 28 44 31 124 4
164 l-18 28 86 88 c74 75 86 92 86 121 0 19 5 99 11 179 9 130 12 147 33 170
56 59 72 141 40 203 -25 47 -333 366 -376 388 -70 36 -144 23 -210 -36 -43
-39 -48 -40 -249 -35 l-116 2 -89 -81 c-49 -44 -93 -81 -98 -81 -4 0 -24 13
-42 30 -45 39 -98 53 -149 39 -61 -17 -67 -26 -39 -54 41 -41 32 -71 -43 -150
-62 -63 -60 -62 18 13 48 45 93 82 100 82 8 0 55 -40 104 -90 l90 -90 -82 -82
c-94 -97 -103 -111 -103 -173 0 -62 8 -76 109 -178 l86 -88 -110 -107 c-61
-59 -265 -256 -454 -438 l-344 -331 -171 176 c-254 260 -267 274 -264 294 2 9
190 198 418 419 228 221 417 405 418 410 2 4 -5 8 -15 8 -10 0 -27 7 -37 15
-35 26 -79 19 -116 -20 l-34 -35 -78 77 -78 77 22 23 c12 13 20 24 17 26 -2 2
-16 11 -31 20 -53 33 -41 59 95 197 114 117 115 119 22 30 -55 -52 -150 -144
-211 -204 l-112 -108 -146 148 -146 149 247 242 c137 133 250 242 253 242 3
-1 51 -50 107 -109 84 -89 105 -117 114 -155 8 -33 15 -43 22 -36 6 6 28 11
49 11 l38 0 1 -47 c0 -43 1 -45 10 -23 17 40 6 132 -22 183 -21 41 -262 292
-1579 1646 -36 37 -83 76 -105 86 -43 20 -145 29 -185 16z m137 -128 c17 -10
75 -65 129 -122 l98 -103 -99 -96 c-55 -52 -166 -160 -246 -239 l-146 -143
-144 145 c-79 80 -145 149 -145 153 -2 10 397 392 426 408 35 19 90 17 127 -3z
m446 -450 c81 -83 147 -154 147 -158 0 -6 -280 -281 -428 -420 l-63 -59 -41
44 c-23 25 -91 96 -152 158 l-111 114 245 239 c135 131 248 237 251 236 3 -1
71 -70 152 -154z m-958 -135 c61 -62 125 -129 143 -149 l32 -35 -246 -239
-245 -238 -86 84 c-119 117 -143 152 -143 206 0 24 5 54 11 66 10 20 408 415
419 416 3 1 55 -50 115 -111z m1343 -260 l142 -147 -248 -240 -247 -241 -153
157 c-83 87 -151 161 -150 165 2 4 113 113 248 242 185 177 248 232 256 223 6
-7 74 -78 152 -159z m-937 -159 l142 -149 -199 -193 c-110 -106 -221 -213
-247 -237 l-48 -44 -155 155 -155 154 248 242 c185 180 251 238 261 231 6 -6
76 -78 153 -159z m1272 -186 c69 -71 136 -142 150 -159 l26 -31 -245 -238
-246 -238 -154 154 c-84 85 -154 156 -154 159 0 6 488 480 494 480 2 0 60 -57
129 -127z m-909 -190 c80 -84 146 -154 146 -156 0 -4 -198 -199 -385 -380
l-101 -97 -156 158 -157 157 247 237 c136 131 250 236 254 235 3 -1 72 -70
152 -154z m374 -386 c78 -81 142 -151 142 -156 0 -4 -108 -113 -241 -241
l-240 -233 -155 154 c-85 84 -153 157 -151 162 6 19 491 477 497 470 4 -4 71
-74 148 -156z m2459 -259 c198 -200 205 -212 160 -263 l-23 -27 -199 207 -199
207 23 19 c49 40 65 30 238 -143z m-392 12 l-49 -50 -44 43 -43 42 73 6 c40 3
82 6 93 7 14 2 7 -10 -30 -48z m-1705 -127 l141 -148 -193 -189 c-106 -104
-206 -197 -223 -207 -34 -21 -95 -25 -128 -8 -12 6 -71 59 -130 118 l-108 106
243 237 c134 131 246 237 250 238 3 0 70 -66 148 -147z m1715 -166 c160 -164
318 -329 352 -366 l63 -69 -54 -45 -53 -46 -162 164 c-88 91 -234 240 -324
332 -89 91 -174 177 -189 191 -16 13 -28 29 -28 35 0 13 91 108 100 104 3 -1
136 -136 295 -300z m122 251 c18 -18 33 -37 33 -43 0 -7 -21 -31 -46 -54 l-47
-42 -24 23 c-49 45 -49 56 -2 104 24 24 45 44 48 44 3 0 20 -14 38 -32z m116
-220 l-47 -48 -39 38 -39 39 49 46 48 46 38 -37 37 -36 -47 -48z m134 -40 c18
-18 33 -37 33 -42 0 -6 -22 -30 -49 -53 l-48 -42 -33 40 -32 41 43 44 c24 24
45 44 48 44 3 0 20 -14 38 -32z m-1688 -53 c40 -41 71 -78 69 -82 -1 -5 -29
-33 -61 -63 l-58 -54 -76 77 -77 78 59 59 c33 33 62 60 65 60 4 0 39 -34 79
-75z m1365 -372 l19 -25 -76 -75 c-65 -64 -80 -74 -106 -71 -24 2 -68 42 -225
206 -108 112 -196 211 -196 220 0 9 37 54 82 99 l82 82 200 -205 c110 -113
209 -217 220 -231z m412 295 c-3 -18 -5 -60 -5 -93 l-1 -60 -47 48 -48 47 50
44 c28 25 51 45 52 46 2 0 1 -15 -1 -32z m-639 -567 c28 -14 108 -14 136 0 12
6 58 47 103 91 l80 79 87 -90 c48 -50 87 -97 87 -104 0 -22 -1118 -1101 -1144
-1105 -18 -2 -67 43 -239 221 l-217 225 278 269 c152 148 355 344 451 437
l174 168 91 -90 c50 -49 101 -95 113 -101z m-1457 -506 c85 -90 258 -270 385
-400 l230 -237 -34 -30 c-51 -45 -69 -36 -211 112 -69 71 -230 237 -357 369
-178 183 -233 245 -233 264 0 24 44 88 58 86 4 0 77 -74 162 -164z m2306 22
c11 -7 66 -60 122 -118 l102 -106 -138 -134 c-75 -74 -186 -182 -245 -239
l-108 -105 -146 150 -145 150 194 188 c106 104 207 197 223 208 34 22 108 25
141 6z m-678 -345 l-63 -61 -77 77 -78 76 62 63 63 63 78 -78 78 -79 -63 -61z
m-2226 -624 c420 -431 783 -804 806 -829 46 -50 54 -88 27 -126 -34 -49 -106
-36 -160 29 -15 18 -120 128 -233 243 -114 116 -299 305 -412 420 -418 429
-619 634 -762 781 -129 131 -148 155 -148 183 0 44 38 81 84 81 32 0 78 -45
798 -782z m-244 732 c609 -77 1112 -677 1052 -1256 -6 -54 -12 -99 -14 -101
-4 -4 -111 104 -671 677 -115 118 -310 316 -432 440 -122 123 -220 226 -218
228 6 7 100 20 150 21 28 0 87 -4 133 -9z m3598 -218 l148 -154 -245 -238
-244 -238 -122 121 c-68 67 -123 126 -123 132 0 5 55 -45 122 -113 l121 -123
101 102 c56 57 83 87 61 68 -22 -19 -65 -60 -96 -92 -31 -31 -60 -57 -65 -57
-9 1 -176 166 -188 187 -5 10 1 11 26 6 18 -3 35 -9 38 -12 9 -11 70 -13 83
-3 11 9 84 23 135 26 12 0 26 6 30 11 9 13 87 48 107 48 8 0 12 3 10 7 -2 3
10 14 26 24 l31 18 -4 -23 c-2 -13 -9 -23 -16 -21 -6 1 -12 -6 -12 -15 0 -12
19 2 60 42 32 32 57 62 54 66 -4 7 14 24 27 24 14 0 68 55 59 60 -6 4 -34 -13
-63 -38 -108 -91 -240 -164 -344 -191 -74 -19 -194 -21 -254 -3 -24 8 -49 12
-55 10 -5 -2 -22 9 -37 25 l-27 28 246 238 c136 130 250 236 254 234 4 -2 74
-72 156 -156z m-2681 32 l89 -94 -53 -54 -54 -54 -58 67 c-32 38 -75 80 -95
96 l-36 27 53 54 c29 30 56 53 59 53 3 -1 45 -44 95 -95z m1787 -230 l108
-111 -147 -145 c-82 -79 -193 -188 -248 -241 l-100 -97 -106 108 c-179 182
-178 190 63 428 95 94 191 188 213 207 l40 37 34 -38 c19 -20 83 -87 143 -148z
m1262 -182 c81 -84 146 -157 144 -162 -5 -14 -481 -471 -488 -468 -3 2 -73 72
-155 157 l-150 153 245 239 c135 131 248 237 251 236 3 -1 72 -71 153 -155z
m-368 112 c-15 -14 -30 -23 -34 -20 -3 4 7 18 23 31 39 30 47 22 11 -11z
m-586 -248 c72 -74 139 -145 150 -159 l19 -25 -245 -238 -246 -238 -156 158
-156 157 50 48 c192 188 446 431 450 431 2 0 63 -60 134 -134z m1459 -388 c17
-23 17 -23 -228 -261 l-246 -237 -152 157 c-84 87 -151 161 -150 164 1 3 112
112 246 241 l244 236 134 -139 c74 -76 142 -149 152 -161z m-4375 131 l77 -81
-106 -60 -106 -59 -34 28 c-18 15 -34 32 -34 36 -1 13 111 217 120 217 4 0 41
-37 83 -81z m3339 -182 l121 -129 -74 -71 c-41 -40 -152 -147 -246 -238 l-172
-166 -156 156 -157 157 248 241 248 241 33 -31 c19 -18 88 -90 155 -160z
m-3623 -35 c68 -36 99 -143 64 -219 -62 -129 -271 -103 -303 38 -9 38 5 103
29 136 44 60 142 81 210 45z m4846 -103 c55 -55 105 -112 113 -127 17 -33 16
-94 -3 -130 -8 -15 -105 -114 -216 -221 l-201 -194 -105 104 c-58 57 -110 113
-116 124 -10 18 -10 19 6 6 29 -24 164 -31 224 -12 1 1 5 1 10 2 4 1 16 6 27
11 10 6 31 11 46 10 15 0 30 6 33 14 3 8 17 14 31 14 14 0 25 4 25 10 0 5 11
12 25 16 14 3 25 10 25 14 0 5 8 11 19 15 10 3 29 14 41 25 16 14 27 17 40 10
13 -7 25 -1 50 25 19 19 31 38 27 41 -4 4 -1 14 6 22 10 13 9 14 -3 7 -40 -24
-89 -69 -83 -78 3 -6 1 -7 -5 -3 -7 4 -31 -6 -54 -22 -137 -94 -313 -144 -428
-122 -30 6 -62 11 -71 11 -9 0 -27 11 -40 25 l-23 25 54 53 c136 133 441 426
444 426 2 0 48 -45 102 -101z m-883 -214 c82 -85 147 -159 145 -163 -5 -13
-478 -467 -486 -467 -4 0 -75 70 -158 155 l-151 155 246 237 c135 131 248 238
251 238 3 0 72 -70 153 -155z m972 -44 c-3 -6 -11 -11 -17 -11 -6 0 -6 6 2 15
14 17 26 13 15 -4z m-31 -32 c-3 -5 -10 -7 -15 -3 -5 3 -7 10 -3 15 3 5 10 7
15 3 5 -3 7 -10 3 -15z m-460 -426 c26 -31 26 -32 6 -46 -11 -7 -101 -93 -200
-191 -193 -190 -226 -212 -295 -202 -36 6 -55 21 -155 121 l-115 115 40 39
c22 22 134 129 249 240 l209 200 117 -122 c64 -67 129 -136 144 -154z"/>
<path d="M7760 13805 c-162 -139 -335 -217 -487 -219 l-82 -1 72 -75 c39 -41
81 -86 94 -100 l23 -25 105 105 c58 58 105 111 104 120 0 8 -4 5 -10 -8 -5
-15 -13 -21 -21 -16 -7 4 -10 4 -6 0 9 -11 -23 -46 -36 -39 -6 3 -8 2 -3 -2 9
-11 -31 -55 -50 -55 -8 0 -12 -4 -9 -9 3 -5 -1 -14 -9 -21 -8 -7 -15 -9 -15
-4 0 4 -13 -8 -30 -26 -16 -18 -30 -27 -30 -20 0 7 -15 27 -33 44 -18 17 -45
48 -61 68 -16 20 -36 39 -45 41 -9 3 4 5 29 6 68 2 165 19 196 36 15 7 31 12
36 9 4 -3 8 -1 8 4 0 12 59 34 71 26 5 -3 9 1 9 9 0 16 27 30 40 22 5 -3 14 4
20 16 9 16 15 18 23 10 9 -9 8 -14 -3 -21 -8 -5 -15 -15 -15 -22 0 -7 -7 -13
-15 -13 -8 -1 -14 -6 -12 -13 1 -7 -3 -12 -10 -12 -6 0 -8 -3 -4 -7 9 -9 237
218 230 229 -3 4 3 5 13 1 16 -6 16 -5 4 10 -7 9 -14 17 -15 16 0 0 -35 -29
-76 -64z m6 -34 c-57 -57 -91 -78 -101 -61 -3 4 1 10 8 13 6 2 16 6 21 8 5 2
32 25 60 51 73 68 82 59 12 -11z"/>
<path d="M8142 13411 c-205 -168 -423 -241 -583 -195 -9 2 31 -45 88 -106
l105 -110 145 143 c120 118 141 143 123 145 -21 3 -21 4 -3 17 12 9 22 10 30
4 14 -12 86 48 76 64 -3 5 -2 7 4 4 5 -3 32 16 58 43 27 28 45 50 40 50 -6 0
-43 -27 -83 -59z m-38 -56 c-4 -8 -11 -15 -16 -15 -6 0 -5 6 2 15 7 8 14 15
16 15 2 0 1 -7 -2 -15z m-42 -37 c-7 -7 -12 -8 -12 -2 0 14 12 26 19 19 2 -3
-1 -11 -7 -17z m-83 -82 c-24 -24 -47 -42 -50 -40 -4 2 -9 -6 -12 -17 -4 -15
-11 -20 -22 -15 -9 3 -14 2 -11 -3 7 -10 -38 -61 -54 -61 -6 0 -8 -5 -5 -10 3
-6 -2 -13 -12 -17 -9 -4 -28 -18 -40 -31 l-22 -24 -68 69 c-37 38 -76 79 -86
92 -18 22 -18 23 1 17 38 -12 130 -8 185 8 30 9 66 15 79 14 13 -2 22 2 21 9
-1 6 11 16 27 22 17 5 30 7 30 3 0 -4 5 1 11 11 6 10 22 17 41 17 l30 0 -43
-44z"/>
<path d="M7240 13278 c-175 -155 -389 -255 -526 -246 -41 2 -54 0 -54 -11 0
-7 36 -50 79 -94 l79 -81 176 169 c96 92 173 173 169 178 -3 6 -2 7 4 4 10 -6
131 109 122 117 -2 2 -24 -14 -49 -36z m-113 -122 c-12 -13 -26 -22 -31 -19
-5 3 2 14 15 24 34 26 41 23 16 -5z m-55 -56 c-11 -11 -23 -20 -25 -20 -2 0
-54 -50 -115 -112 l-112 -112 -20 22 c-12 12 -17 22 -13 23 4 0 -2 4 -13 9
-12 5 -28 22 -35 39 -8 19 -21 31 -33 31 -15 0 -16 3 -6 15 7 8 16 12 21 9 5
-3 9 -1 9 4 0 5 10 10 23 10 12 0 44 5 70 11 27 6 52 9 57 6 5 -3 11 -1 15 4
7 12 116 63 122 57 2 -2 16 7 30 20 18 17 30 21 37 14 7 -7 3 -16 -12 -30z
m-372 -90 c0 -5 -4 -10 -10 -10 -5 0 -10 5 -10 10 0 6 5 10 10 10 6 0 10 -4
10 -10z"/>
<path d="M8545 13044 c-80 -72 -222 -161 -309 -196 -74 -29 -91 -32 -193 -32
l-112 -1 97 -97 96 -98 51 48 c212 203 294 286 289 293 -3 5 1 9 8 9 15 1 135
106 128 113 -3 3 -27 -15 -55 -39z m-100 -104 c-10 -11 -23 -20 -29 -20 -6 0
0 9 14 20 32 25 38 25 15 0z m-55 -52 c-13 -13 -37 -33 -54 -45 -16 -13 -27
-23 -23 -23 3 0 -5 -11 -19 -25 -14 -14 -27 -25 -28 -25 -2 0 -33 -30 -69 -66
-58 -59 -97 -78 -89 -45 1 6 -4 11 -12 11 -7 0 -16 9 -19 21 -3 12 -10 18 -16
14 -6 -3 -11 1 -11 9 0 8 -5 18 -12 22 -7 5 -9 2 -3 -7 4 -8 -9 3 -29 24 -35
37 -46 54 -27 43 17 -11 136 -6 156 6 15 9 78 22 93 19 6 -1 12 3 12 9 0 6 4
9 9 6 5 -4 11 -2 13 4 1 5 15 11 30 12 15 1 26 6 25 10 -2 9 63 47 82 47 10 1
7 -7 -9 -21z"/>
<path d="M7610 12888 c-25 -21 -64 -53 -87 -70 -24 -17 -41 -34 -38 -36 2 -3
11 1 20 8 10 8 15 9 15 1 0 -10 -5 -12 -40 -15 -8 -1 -62 -25 -120 -53 -119
-59 -201 -78 -297 -70 l-66 5 99 -99 99 -99 142 142 c78 78 140 145 137 150
-3 4 1 6 8 3 7 -3 50 32 98 80 88 89 106 121 30 53z m-50 -62 c0 -2 -8 -10
-17 -17 -16 -13 -17 -12 -4 4 13 16 21 21 21 13z m-126 -117 c-21 -22 -44 -39
-51 -39 -7 0 -13 -7 -13 -15 0 -8 -7 -15 -15 -15 -8 0 -15 -7 -15 -15 0 -8 -7
-15 -15 -15 -8 0 -15 -5 -15 -11 0 -13 -19 -32 -61 -61 -19 -13 -35 -27 -35
-33 0 -5 -8 -12 -18 -13 -19 -4 -108 77 -100 90 3 5 -2 8 -10 8 -9 0 -15 5
-13 12 1 7 -4 12 -12 13 -8 0 -16 5 -18 11 -3 8 19 11 69 10 45 -1 84 4 102
13 15 7 40 14 55 16 14 1 41 11 60 23 19 12 38 19 43 16 4 -3 8 -1 8 5 0 6 11
13 25 17 13 3 29 12 36 20 6 8 16 11 21 8 5 -4 -7 -24 -28 -45z"/>
<path d="M8875 12629 c-208 -161 -434 -226 -580 -164 -32 13 -22 -1 81 -108
l119 -124 215 208 c210 202 268 260 259 258 -2 0 -44 -32 -94 -70z m-55 -74
c-19 -19 -41 -35 -49 -35 -8 0 -12 -3 -9 -6 7 -7 -156 -165 -183 -178 -10 -5
-19 -13 -19 -18 0 -12 -38 -48 -51 -48 -5 0 -7 -4 -4 -10 9 -15 -12 -12 -27 4
-7 8 -51 53 -97 100 -64 66 -77 84 -55 75 37 -15 174 -19 174 -4 0 5 4 3 10
-5 7 -12 11 -12 28 3 11 10 32 19 48 21 16 3 42 11 58 19 16 9 35 13 44 10 11
-5 13 -3 7 8 -7 12 -6 12 7 1 13 -10 16 -9 21 9 3 11 10 18 15 15 6 -3 13 1
16 10 3 8 10 13 15 10 5 -4 11 -3 13 2 3 8 60 51 68 52 2 0 -11 -16 -30 -35z"/>
<path d="M8010 12525 c-7 -9 -50 -43 -94 -77 -45 -33 -82 -65 -82 -69 -1 -5
-2 -15 -3 -23 -1 -15 -41 -30 -41 -15 0 4 9 13 21 19 11 7 18 14 15 17 -2 3
-29 -8 -58 -25 -102 -57 -173 -76 -290 -76 l-106 -1 91 -95 c51 -52 94 -96 98
-98 3 -1 93 82 200 186 107 103 214 207 239 230 25 23 40 42 34 42 -6 0 -17
-7 -24 -15z m-125 -125 c-10 -11 -22 -20 -28 -20 -5 0 1 9 14 20 31 25 37 25
14 0z m-100 -70 c3 -5 0 -17 -7 -26 -28 -34 -88 -96 -88 -91 0 3 -29 -23 -64
-59 -64 -64 -83 -77 -72 -49 3 8 1 15 -5 15 -6 0 -25 14 -42 32 -18 18 -25 28
-17 23 8 -4 6 1 -5 12 -11 11 -23 19 -26 17 -3 -2 -11 8 -17 21 -7 14 -20 26
-29 27 -17 1 180 18 220 19 9 0 15 4 12 9 -6 9 60 26 83 22 6 -2 12 4 12 12 0
21 34 34 45 16z"/>
<path d="M8325 12093 c-89 -71 -251 -155 -334 -174 -82 -18 -188 -14 -250 10
l-54 20 23 -24 c13 -13 27 -22 32 -19 5 3 7 2 6 -3 -2 -5 39 -55 91 -111 l95
-102 100 97 c260 251 376 366 374 368 -2 1 -39 -27 -83 -62z m-63 -73 c-12
-11 -26 -20 -32 -20 -5 0 -9 -6 -7 -12 1 -7 -3 -12 -10 -11 -6 2 -15 -6 -18
-17 -4 -11 -13 -20 -21 -20 -8 0 -13 -3 -10 -8 2 -4 -14 -23 -36 -42 -22 -19
-62 -56 -88 -82 -26 -27 -53 -48 -59 -48 -7 0 -9 -5 -6 -11 4 -6 -2 -13 -14
-16 -11 -3 -18 -9 -15 -14 11 -19 -10 -8 -32 17 -13 14 -24 23 -24 20 0 -10
-124 126 -126 138 -1 10 8 11 45 4 52 -10 190 -1 208 14 7 5 16 7 22 4 5 -3
11 -1 13 5 2 6 16 12 31 12 15 1 27 5 27 8 0 9 51 30 60 24 5 -3 13 2 18 10 7
14 78 64 91 65 3 0 -5 -9 -17 -20z"/>
<path d="M8675 11774 c-27 -24 -78 -62 -112 -85 -41 -27 -60 -45 -56 -55 3 -8
9 -11 14 -8 5 3 7 9 4 14 -4 7 4 13 30 20 6 2 16 11 23 21 7 11 23 19 34 19
12 0 18 3 15 6 -7 8 44 50 55 47 5 -2 8 2 8 8 0 12 29 38 43 39 4 0 7 -6 7
-12 0 -18 -294 -308 -311 -308 -8 0 -23 -13 -32 -30 -10 -16 -26 -30 -35 -30
-10 0 -23 -9 -30 -20 l-13 -21 38 20 c21 11 120 102 221 203 173 174 182 185
165 200 -17 15 -21 13 -68 -28z"/>
<path d="M8414 11604 c-90 -44 -200 -68 -278 -60 l-59 6 59 -62 c63 -67 98
-98 110 -98 4 0 -4 9 -17 20 -30 25 -119 114 -116 116 1 1 46 4 100 7 53 3
103 10 111 16 8 7 26 13 40 15 13 1 31 7 38 13 17 13 51 27 61 25 4 -1 7 3 7
8 0 6 7 10 15 10 8 0 15 5 15 10 0 14 -7 12 -86 -26z"/>
<path d="M11148 10324 c-69 -59 -136 -103 -224 -147 -105 -53 -181 -70 -292
-65 l-93 4 108 -108 c59 -59 111 -107 114 -106 29 11 471 447 464 457 -10 18
-21 13 -77 -35z m54 19 c-6 -3 -9 -10 -6 -15 4 -7 2 -8 -5 -4 -9 6 -9 11 0 22
6 8 15 12 18 8 3 -4 0 -9 -7 -11z m-101 -106 c-41 -39 -78 -71 -83 -69 -4 1
-8 -3 -8 -9 0 -12 -46 -59 -58 -59 -4 0 -12 -10 -17 -22 -6 -12 -19 -26 -29
-32 -11 -6 -45 -37 -76 -68 -56 -57 -90 -73 -90 -43 0 8 -4 15 -10 15 -19 0
-61 44 -55 58 4 10 0 12 -10 8 -9 -3 -13 -2 -10 4 3 5 -5 14 -17 21 -18 10
-58 46 -58 54 0 1 24 0 53 -3 28 -2 72 1 97 7 30 7 46 7 49 0 1 -6 8 -3 15 6
6 9 28 17 49 18 21 2 41 8 45 14 4 5 32 23 62 38 30 15 74 40 96 56 23 15 44
25 47 22 4 -3 9 2 13 11 3 9 12 16 20 16 8 0 13 3 13 8 -3 16 2 22 19 22 11 0
-9 -25 -57 -73z"/>
<path d="M10910 10069 c0 -5 5 -7 10 -4 6 3 10 8 10 11 0 2 -4 4 -10 4 -5 0
-10 -5 -10 -11z"/>
<path d="M11374 9755 c-4 -8 -12 -15 -20 -15 -8 0 -14 -8 -14 -17 0 -13 7 -10
30 12 33 32 35 35 20 35 -6 0 -13 -7 -16 -15z"/>
<path d="M10617 9789 c-20 -17 -35 -34 -32 -39 3 -4 -3 -14 -13 -21 -15 -13
-16 -12 -3 4 21 27 6 20 -51 -23 -125 -95 -338 -171 -440 -157 -39 5 -40 5
-33 -21 3 -14 38 -61 77 -104 l71 -79 46 43 c171 161 365 355 362 363 -1 6 1
7 5 2 8 -7 64 40 64 55 0 15 -15 8 -53 -23z m33 7 c0 -2 -8 -10 -17 -17 -16
-13 -17 -12 -4 4 13 16 21 21 21 13z m-100 -91 c-7 -8 -18 -15 -24 -15 -6 0
-2 7 8 15 25 19 32 19 16 0z m-108 -104 c-45 -42 -92 -85 -106 -96 -14 -11
-26 -26 -26 -33 0 -7 -4 -10 -10 -7 -5 3 -10 1 -10 -5 0 -6 -4 -9 -9 -6 -5 3
-11 -4 -14 -15 -3 -11 -15 -23 -26 -26 -12 -3 -21 -11 -21 -19 0 -7 -5 -16
-11 -20 -15 -9 -122 102 -113 117 4 8 3 9 -4 5 -9 -5 -32 21 -32 37 0 4 82 12
190 20 14 1 30 7 35 15 6 7 20 14 33 15 12 0 22 4 22 8 0 8 81 43 97 42 7 0
10 4 6 10 -4 6 0 8 10 4 9 -3 16 -2 14 3 -3 12 36 40 47 33 4 -3 -28 -40 -72
-82z"/>
<path d="M10170 9406 c0 -2 8 -10 18 -17 15 -13 16 -12 3 4 -13 16 -21 21 -21
13z"/>
<path d="M11927 9562 c-15 -16 -24 -32 -20 -37 5 -4 3 -5 -4 -1 -7 3 -35 -11
-65 -34 -70 -53 -187 -113 -272 -139 -74 -23 -187 -28 -246 -11 l-34 10 40
-43 c22 -23 71 -75 109 -114 l69 -73 140 138 c78 77 165 160 193 187 29 26 50
52 46 58 -3 5 -2 7 4 4 5 -3 29 14 53 38 27 28 38 45 29 45 -8 0 -27 -13 -42
-28z m-95 -109 c-24 -21 -93 -88 -155 -150 -61 -62 -119 -115 -129 -119 -10
-3 -18 -12 -18 -20 0 -8 -4 -13 -9 -9 -5 3 -12 1 -16 -5 -7 -11 -35 12 -35 29
0 6 -7 11 -15 11 -8 0 -15 4 -15 9 0 5 -27 36 -61 69 -45 45 -55 59 -37 55 13
-3 29 -11 37 -17 12 -9 13 -8 7 3 -6 10 -4 12 10 8 52 -14 75 -17 70 -9 -5 9
76 26 127 27 10 0 21 5 25 11 9 14 103 56 110 49 3 -3 12 4 19 15 8 11 18 18
23 15 5 -3 16 3 26 12 18 19 66 53 74 53 2 0 -15 -17 -38 -37z"/>
<path d="M10948 9386 c-42 -33 -75 -63 -73 -65 3 -2 20 8 40 23 39 30 47 20
13 -17 -18 -19 -28 -23 -45 -16 -17 6 -37 0 -83 -26 -145 -82 -304 -113 -418
-82 l-54 15 53 -54 c29 -29 56 -51 61 -48 4 3 6 -1 3 -8 -3 -7 23 -42 59 -77
l65 -64 178 171 c206 197 272 264 273 275 0 4 0 10 0 15 0 4 5 0 10 -8 5 -8
10 -10 10 -5 0 34 -21 27 -92 -29z m52 9 c0 -2 -10 -10 -22 -16 -21 -11 -22
-11 -9 4 13 16 31 23 31 12z m-110 -101 c0 -11 -109 -112 -114 -107 -3 3 -8
-2 -12 -11 -3 -9 -13 -16 -21 -16 -8 0 -11 -5 -8 -11 4 -6 -2 -13 -14 -16 -12
-3 -21 -9 -21 -13 0 -8 -81 -93 -113 -119 -15 -12 -22 -8 -61 30 -25 23 -42
47 -39 53 3 6 3 8 -2 4 -12 -11 -35 11 -28 28 3 8 -1 14 -11 14 -9 0 -16 5
-16 11 0 5 -4 8 -9 5 -4 -3 -13 5 -18 17 l-10 22 105 -5 c80 -4 109 -2 119 8
10 11 13 11 13 1 0 -8 5 -7 13 4 6 9 23 18 37 19 14 2 27 6 30 9 8 10 92 49
106 49 6 0 14 7 18 15 5 14 56 22 56 9z"/>
<path d="M10505 9060 c3 -5 11 -10 16 -10 6 0 7 5 4 10 -3 6 -11 10 -16 10 -6
0 -7 -4 -4 -10z"/>
<path d="M12290 9178 c-77 -68 -220 -156 -304 -189 -92 -36 -231 -50 -301 -30
-38 10 -36 7 75 -104 l114 -115 46 43 c24 23 110 105 190 183 80 77 166 161
193 185 62 58 51 83 -13 27z m-10 -37 c-25 -22 -46 -38 -48 -36 -5 5 72 74 83
75 5 0 -11 -18 -35 -39z m-60 -48 c0 -13 -53 -63 -67 -63 -7 0 -13 -7 -13 -15
0 -8 -7 -15 -15 -15 -8 0 -15 -7 -15 -15 0 -8 -7 -15 -15 -15 -8 0 -15 -5 -15
-11 0 -15 -26 -39 -44 -39 -8 0 -18 -4 -21 -10 -4 -6 1 -7 11 -3 12 4 15 3 10
-5 -4 -7 -12 -12 -17 -12 -5 0 -33 -25 -61 -55 -28 -29 -56 -51 -61 -48 -6 3
-7 1 -3 -6 4 -6 0 -14 -9 -17 -17 -7 -55 22 -55 41 0 7 -7 16 -16 19 -8 3 -12
10 -9 16 3 5 -2 10 -13 10 -23 0 -56 35 -47 49 3 6 -1 11 -9 11 -19 0 -21 16
-3 23 6 2 44 4 83 4 39 0 77 3 83 7 6 4 11 2 11 -3 0 -6 5 -11 10 -11 6 0 10
7 10 15 0 8 8 15 18 15 10 0 23 5 30 12 9 9 12 9 12 -2 1 -12 3 -11 11 2 5 10
25 20 44 24 19 3 32 10 29 15 -5 9 9 13 35 10 7 -2 10 2 6 8 -4 7 0 8 10 5 9
-4 15 -2 13 4 -2 6 13 22 32 36 36 26 50 31 50 19z"/>
<path d="M11315 8979 c-112 -86 -222 -144 -321 -169 -91 -24 -150 -25 -224 -6
-30 8 -55 14 -56 13 0 -1 51 -55 115 -119 l116 -117 235 229 c129 126 233 230
230 233 -3 2 -45 -27 -95 -64z m25 -2 c0 -2 -10 -12 -22 -23 l-23 -19 19 23
c18 21 26 27 26 19z m-94 -92 c-9 -14 -21 -23 -26 -20 -6 4 -10 1 -10 -4 0 -6
-7 -11 -15 -11 -8 0 -15 -7 -15 -16 0 -8 -4 -12 -10 -9 -5 3 -10 1 -10 -6 0
-14 -82 -95 -92 -91 -5 1 -7 -1 -5 -5 3 -10 -40 -53 -52 -53 -5 0 -12 -9 -16
-19 -3 -11 -16 -26 -29 -35 -23 -15 -26 -13 -84 49 -33 35 -55 66 -49 68 5 1
2 11 -8 21 -12 12 -20 14 -25 7 -4 -8 -13 -5 -25 9 -10 11 -13 20 -7 20 7 0
12 -5 12 -11 0 -5 4 -8 8 -5 5 3 52 6 105 7 54 1 97 5 97 10 0 5 23 11 50 15
28 4 50 10 50 15 0 8 40 24 53 21 4 -1 7 2 7 7 0 12 60 32 72 24 6 -3 8 0 6 8
-3 8 2 19 11 26 23 17 26 7 7 -22z"/>
<path d="M12540 8690 c-11 -11 -24 -20 -29 -20 -5 0 -11 -9 -14 -21 -4 -13
-10 -18 -18 -13 -8 5 -10 3 -5 -5 5 -8 0 -14 -13 -18 -12 -3 -21 -12 -21 -19
0 -8 -7 -14 -15 -14 -8 0 -15 -7 -15 -15 0 -8 -3 -15 -7 -15 -5 0 -44 -36 -88
-79 -66 -65 -83 -77 -98 -70 -9 6 -15 14 -12 20 4 5 -1 9 -9 9 -9 0 -16 7 -16
15 0 8 -5 15 -12 15 -7 0 -30 19 -53 43 -22 23 -49 49 -60 57 -11 7 23 -31 75
-85 52 -55 95 -100 95 -102 0 -1 79 74 175 167 96 93 172 169 168 169 -5 1
-17 -8 -28 -19z"/>
<path d="M11705 8619 c-214 -178 -442 -247 -610 -184 -11 4 34 -47 99 -113
l120 -121 40 36 c109 95 334 327 330 338 -3 7 2 15 12 19 12 5 15 2 10 -11 -4
-10 13 2 38 26 25 24 43 48 40 53 -8 13 -16 9 -79 -43z m50 11 c-16 -16 -33
-30 -39 -30 -9 0 53 59 63 60 3 0 -8 -13 -24 -30z m-103 -91 c-18 -16 -38 -27
-44 -23 -7 4 -4 11 8 17 11 6 25 17 32 24 7 7 19 13 25 13 7 0 -3 -14 -21 -31z
m-48 -50 c-3 -5 -9 -7 -14 -4 -4 3 -10 -5 -13 -16 -3 -12 -10 -18 -17 -14 -6
3 -9 2 -8 -3 3 -8 -87 -101 -201 -206 l-31 -30 -30 29 c-16 16 -30 35 -30 42
0 8 -4 12 -9 8 -10 -6 -26 13 -26 30 0 6 -4 10 -10 10 -19 0 -35 16 -29 27 4
6 3 8 -3 5 -6 -4 -21 5 -33 18 -24 26 -14 33 20 15 30 -16 103 -18 125 -4 11
7 38 14 60 16 22 1 47 9 55 16 9 9 15 11 18 4 2 -6 12 -2 23 9 11 11 24 17 29
14 6 -4 10 -3 10 2 0 4 11 13 25 20 19 8 23 8 18 0 -3 -7 6 0 22 16 21 21 31
25 41 16 8 -6 11 -15 8 -20z"/>
<path d="M12055 8273 c-102 -93 -250 -177 -370 -208 -68 -17 -181 -20 -222 -4
-21 7 -5 -13 62 -80 49 -50 92 -91 95 -91 3 0 7 10 7 22 2 18 0 20 -7 8 -9
-14 -14 -7 -11 13 0 4 -5 6 -11 5 -7 -2 -12 3 -10 10 1 6 -3 11 -10 10 -11 -3
-13 1 -17 33 0 6 -8 9 -16 6 -8 -4 -17 -2 -20 3 -4 6 -1 10 5 10 6 0 8 5 4 11
-5 8 -8 8 -14 0 -5 -9 -10 -8 -19 2 -10 13 0 15 66 16 92 2 114 5 130 14 6 4
18 5 25 2 8 -3 21 1 28 10 7 8 18 15 26 15 7 0 36 14 64 30 28 17 54 30 59 30
4 0 18 9 30 19 13 11 28 18 35 15 8 -3 16 4 19 17 4 15 11 20 22 15 9 -3 14
-2 11 3 -7 10 18 33 27 25 3 -3 10 4 17 15 6 12 16 18 22 15 6 -4 8 -3 5 3 -9
14 16 34 31 24 8 -5 -7 -23 -45 -57 -30 -27 -89 -82 -129 -121 -40 -40 -74
-70 -77 -65 -2 4 -3 2 -1 -5 3 -13 -22 -37 -48 -46 -10 -4 -18 -11 -18 -17 0
-24 -84 -85 -106 -76 -8 3 -14 1 -14 -4 0 -14 31 -12 56 3 12 7 108 96 214
199 166 161 191 189 180 203 -7 8 -15 15 -19 15 -3 -1 -28 -21 -56 -47z"/>
<path d="M9215 12300 c-163 -141 -358 -225 -505 -218 l-68 3 100 -107 c55 -60
103 -108 107 -108 4 0 57 51 119 113 62 63 113 113 114 111 2 -1 9 4 16 12 10
11 10 14 -1 14 -8 0 -25 -13 -38 -30 -13 -16 -30 -30 -36 -30 -7 0 -13 -7 -13
-15 0 -8 -7 -15 -15 -15 -8 0 -14 -3 -13 -7 4 -12 -44 -63 -54 -57 -4 3 -8 -2
-8 -10 0 -8 -9 -17 -20 -21 -11 -3 -19 -11 -17 -17 2 -10 -23 -13 -63 -9 -5 1
-10 8 -10 16 0 8 -7 15 -15 15 -8 0 -15 5 -15 10 0 6 -21 30 -46 54 -26 25
-43 49 -39 56 5 8 11 8 21 -1 11 -9 18 -8 31 2 11 10 14 10 9 2 -4 -7 -3 -13
3 -13 5 0 13 5 16 11 4 6 13 8 20 5 8 -3 15 0 17 6 2 6 24 11 48 12 25 1 56 9
70 18 14 9 32 18 40 20 8 2 18 7 21 11 3 5 12 9 20 10 8 2 28 12 44 23 17 12
38 20 47 19 11 -2 15 2 11 11 -3 9 2 14 17 14 11 0 19 4 16 8 -6 11 48 52 75
57 13 3 19 -2 19 -13 0 -15 2 -15 10 -2 6 10 5 17 -6 23 -12 7 -13 11 -3 24
12 13 14 13 20 -4 6 -14 7 -11 6 10 -1 15 -2 27 -4 27 -1 0 -23 -18 -48 -40z
m-350 -410 c-3 -5 -10 -10 -16 -10 -5 0 -9 5 -9 10 0 6 7 10 16 10 8 0 12 -4
9 -10z"/>
<path d="M9204 12235 c-9 -21 -2 -26 13 -10 8 9 9 16 3 20 -6 3 -13 -1 -16
-10z"/>
<path d="M9175 12200 c-3 -5 -1 -10 4 -10 6 0 11 5 11 10 0 6 -2 10 -4 10 -3
0 -8 -4 -11 -10z"/>
<path d="M9131 12159 c-12 -12 -20 -23 -17 -26 3 -3 17 7 31 21 31 31 19 35
-14 5z"/>
<path d="M4612 12103 c-53 -26 -82 -72 -82 -128 0 -43 4 -52 44 -91 39 -40 48
-44 92 -44 87 0 147 58 147 142 0 46 -37 98 -86 122 -44 20 -73 20 -115 -1z"/>
<path d="M12040 11590 c0 -17 9 -48 20 -70 25 -49 25 -70 -1 -126 -40 -89 -4
-117 90 -69 l51 25 54 -25 c64 -30 92 -32 106 -5 9 17 6 32 -14 77 -31 67 -32
73 -6 115 11 18 20 50 20 71 0 33 -3 37 -26 37 -14 0 -46 -9 -71 -21 -49 -22
-89 -21 -140 6 -15 8 -40 15 -55 15 -24 0 -28 -4 -28 -30z"/>
<path d="M3691 11503 c-45 -56 -38 -114 16 -146 61 -35 133 11 133 86 0 77
-103 119 -149 60z"/>
<path d="M9315 11295 c-54 -53 -16 -145 60 -145 49 0 85 36 85 85 0 49 -36 85
-85 85 -25 0 -44 -8 -60 -25z"/>
<path d="M9085 11065 c-54 -53 -15 -149 60 -149 29 0 43 7 61 28 51 59 15 146
-61 146 -25 0 -44 -8 -60 -25z"/>
<path d="M6019 10639 c-14 -14 -18 -27 -14 -42 12 -39 34 -47 132 -47 80 0 96
3 113 20 26 26 25 36 -5 65 -22 23 -32 25 -115 25 -77 0 -93 -3 -111 -21z"/>
<path d="M5720 10597 c-111 -39 -209 -96 -217 -125 -15 -59 41 -78 111 -37 24
14 81 39 127 56 109 39 131 67 89 109 -25 25 -30 25 -110 -3z"/>
<path d="M12658 10524 c-70 -38 -63 -133 12 -164 24 -10 36 -10 60 0 68 28 79
89 26 144 -36 39 -56 43 -98 20z"/>
<path d="M5277 10288 c-61 -72 -137 -192 -137 -217 0 -27 26 -51 55 -51 19 0
34 16 71 72 25 40 66 96 90 126 48 59 53 80 26 105 -32 29 -58 20 -105 -35z"/>
<path d="M5912 10255 c-112 -25 -207 -78 -297 -169 -68 -68 -89 -98 -133 -186
-28 -58 -58 -132 -66 -165 -14 -53 -14 -62 0 -82 15 -24 67 -32 79 -13 4 6 15
43 26 82 44 157 158 313 276 376 101 53 162 65 361 72 7 0 17 11 24 25 9 19 8
29 -6 50 -16 24 -21 25 -109 24 -50 0 -120 -7 -155 -14z"/>
<path d="M6030 9891 c-34 -11 -89 -39 -123 -65 -41 -30 -105 -130 -123 -193
-14 -49 -14 -56 0 -78 19 -29 56 -33 78 -7 8 9 20 37 27 62 29 108 115 177
234 187 88 8 123 46 79 86 -20 18 -123 23 -172 8z"/>
<path d="M5045 9857 c-20 -31 -57 -176 -50 -197 8 -24 46 -39 72 -29 15 5 26
22 33 51 6 24 18 69 27 101 15 54 15 59 -2 77 -24 27 -61 25 -80 -3z"/>
<path d="M4650 7820 l0 -41 145 2 c131 1 145 3 145 18 0 19 24 44 50 54 8 3
-65 6 -162 6 l-178 1 0 -40z"/>
<path d="M5060 7850 c0 -5 -12 -13 -27 -16 -26 -7 -52 -30 -53 -46 0 -5 158
-8 350 -8 l350 0 0 40 0 40 -310 0 c-196 0 -310 -4 -310 -10z"/>
<path d="M7121 7569 c-31 -69 -136 -172 -234 -232 -43 -26 -82 -47 -87 -47 -6
0 -10 57 -10 139 l0 140 -166 -57 -166 -57 0 -153 0 -153 -27 -11 c-84 -32
-364 -93 -586 -127 -276 -42 -853 -48 -1180 -13 -104 11 -248 30 -319 42 -106
18 -130 19 -137 8 -7 -10 -11 -9 -21 5 -7 9 -41 23 -78 32 -97 21 -211 53
-218 60 -4 4 -9 72 -12 152 l-5 146 -54 18 c-54 19 -54 19 -36 -1 10 -11 16
-23 12 -26 -10 -11 -46 16 -49 37 -2 16 -23 28 -93 55 -49 18 -94 34 -99 34
-4 0 -5 -60 -1 -134 4 -74 4 -139 1 -145 -8 -12 -106 43 -185 104 -73 56 -146
137 -169 189 -17 38 -17 32 -22 -270 -3 -170 -3 -319 -1 -332 l4 -23 19 20
c10 12 25 21 33 21 8 0 15 9 15 20 0 11 6 20 13 20 6 0 29 18 50 40 20 22 44
40 52 40 8 0 15 7 15 17 0 9 3 14 6 10 8 -7 34 17 34 32 0 15 11 13 38 -7 l23
-18 -33 -24 c-18 -14 -38 -25 -44 -25 -16 0 -44 -32 -44 -49 0 -9 -4 -16 -10
-16 -5 0 -10 -5 -10 -11 0 -17 -52 -54 -72 -51 -12 2 -16 -1 -12 -11 3 -8 -2
-17 -10 -20 -9 -4 -16 -13 -16 -22 0 -20 -20 -19 -34 1 -17 22 -20 -136 -5
-200 63 -263 281 -491 645 -674 33 -16 92 -42 130 -57 38 -15 83 -33 99 -40
57 -25 283 -90 365 -105 36 -7 95 -19 132 -26 209 -43 611 -64 863 -45 572 44
1051 203 1387 463 162 125 274 288 318 463 19 76 20 107 18 503 l-3 422 -24
-51z m-1351 -609 c0 -5 -2 -10 -4 -10 -3 0 -8 5 -11 10 -3 6 -1 10 4 10 6 0
11 -4 11 -10z m-65 -60 c3 -5 1 -10 -4 -10 -6 0 -11 5 -11 10 0 6 2 10 4 10 3
0 8 -4 11 -10z m-1395 -540 c0 -5 -4 -10 -10 -10 -5 0 -10 5 -10 10 0 6 5 10
10 10 6 0 10 -4 10 -10z m383 -400 c-4 -16 -9 -18 -19 -9 -10 8 -11 14 -1 24
16 17 26 10 20 -15z m-83 -96 c0 -3 -7 -1 -15 6 -8 7 -15 17 -15 22 0 5 7 3
15 -6 8 -8 15 -18 15 -22z"/>
<path d="M3275 7010 c-3 -5 -1 -10 4 -10 6 0 11 5 11 10 0 6 -2 10 -4 10 -3 0
-8 -4 -11 -10z"/>
<path d="M3210 6949 c0 -5 5 -7 10 -4 6 3 10 8 10 11 0 2 -4 4 -10 4 -5 0 -10
-5 -10 -11z"/>
<path d="M2472 6533 c-8 -3 -22 -24 -32 -48 -14 -33 -28 -47 -66 -66 -65 -32
-72 -63 -17 -84 60 -24 65 -28 82 -74 30 -81 68 -78 101 10 12 33 22 44 54 54
21 8 46 21 55 29 14 14 14 18 0 31 -8 8 -35 25 -59 37 -31 16 -47 32 -53 53
-10 30 -35 66 -46 64 -3 0 -12 -3 -19 -6z"/>
<path d="M9293 6510 c-17 -10 -36 -28 -42 -38 -13 -25 -97 -555 -161 -1027
-28 -203 -53 -371 -55 -374 -5 -4 -54 13 -449 149 -163 57 -185 62 -238 57
-111 -10 -125 -21 -703 -567 l-540 -510 -143 0 -142 0 74 70 c112 107 192 236
232 375 14 49 18 114 21 350 3 160 3 314 1 344 l-3 55 -38 -75 c-146 -289
-564 -556 -1067 -684 -325 -82 -482 -100 -885 -100 -270 0 -330 4 -465 23
-543 80 -962 245 -1248 491 -103 89 -217 237 -250 326 -17 46 -10 -676 7 -729
10 -29 15 -36 22 -25 6 10 9 10 9 2 0 -7 4 -13 10 -13 5 0 7 7 3 15 -3 9 3 25
13 36 17 19 19 19 30 4 17 -23 -2 -65 -29 -65 -13 0 -17 -5 -13 -15 3 -8 1
-15 -4 -15 -6 0 -10 5 -10 12 0 6 -3 9 -6 5 -7 -6 66 -145 102 -193 19 -26 21
-36 14 -70 -5 -21 -10 -58 -10 -80 0 -50 -9 -54 -118 -54 -73 0 -341 -26 -375
-36 -10 -3 -17 -13 -15 -22 4 -21 108 -36 350 -51 215 -14 331 -14 415 0 l68
11 150 -75 c217 -108 335 -146 335 -107 0 4 23 30 52 57 28 26 59 56 69 65 9
9 20 14 23 10 3 -3 6 0 6 6 0 6 9 10 20 9 11 -1 20 -7 20 -14 0 -7 -7 -10 -16
-6 -13 5 -15 2 -9 -17 5 -16 4 -20 -4 -15 -12 7 -50 -32 -51 -52 0 -15 -16
-17 -25 -3 -3 6 -12 10 -18 10 -7 0 -1 -9 13 -19 l25 -19 -27 -7 c-15 -4 -26
-12 -25 -19 1 -7 -11 -10 -33 -9 l-35 2 35 -16 c19 -8 103 -33 185 -53 602
-152 1331 -126 1887 69 136 47 187 69 307 132 l115 60 2655 -4 c1585 -3 2700
0 2766 5 155 13 229 29 233 50 2 12 -7 20 -35 27 -77 20 -198 33 -370 39
l-176 7 -12 55 c-35 179 -187 323 -375 356 -142 24 -279 -17 -385 -117 l-55
-52 -188 61 c-103 33 -190 66 -194 74 -4 7 -59 263 -123 568 -65 305 -122 566
-128 580 -7 13 -28 35 -47 48 -60 41 -148 15 -175 -51 -7 -18 -66 -284 -130
-592 -65 -308 -120 -562 -122 -564 -2 -3 -12 4 -23 15 -17 17 -31 101 -100
609 -96 706 -177 1229 -196 1270 -29 62 -117 84 -181 45z m88 -101 c13 -25
243 -1652 237 -1671 -2 -4 -50 40 -108 98 l-105 104 -125 41 c-69 23 -128 44
-132 48 -13 11 180 1364 199 1394 7 11 25 4 34 -14z m821 -869 c39 -193 188
-902 193 -917 2 -6 -32 1 -83 18 -145 49 -253 37 -362 -41 -32 -23 -52 -26
-45 -7 3 6 54 246 115 532 60 286 112 530 115 543 4 15 12 22 22 20 12 -2 23
-37 45 -148z m-1327 -549 l456 -160 189 -182 c105 -100 190 -183 190 -185 0
-1 -5 -6 -12 -10 -6 -4 -8 -3 -4 4 3 6 1 14 -6 19 -7 4 -159 17 -338 29 -279
19 -332 25 -375 44 -40 17 -103 74 -320 290 l-270 270 -36 -23 c-20 -12 -240
-214 -490 -449 l-453 -428 -55 0 -56 0 40 39 c22 21 243 229 491 463 307 289
461 428 485 435 19 7 51 10 71 7 20 -2 242 -76 493 -163z m-642 -388 c-13 -2
-35 -2 -50 0 -16 2 -5 4 22 4 28 0 40 -2 28 -4z m-223 -48 c0 -2 -10 -9 -22
-15 -22 -11 -22 -10 -4 4 21 17 26 19 26 11z m2499 -95 c169 -55 313 -100 320
-100 9 0 11 -7 6 -22 -4 -13 -12 -44 -18 -70 l-11 -48 -128 0 -128 0 -161 158
c-88 86 -168 161 -176 165 -8 5 -32 5 -53 -1 -36 -9 -518 -294 -531 -314 -3
-5 -24 -8 -46 -6 -40 3 -36 6 214 158 139 85 268 160 286 167 66 25 111 16
426 -87z m-2549 67 c0 -2 -10 -12 -22 -23 l-23 -19 19 23 c18 21 26 27 26 19z
m600 -94 c0 -8 -9 0 -50 45 l-45 47 48 -45 c26 -24 47 -45 47 -47z m2864 48
c90 -44 156 -125 186 -230 l9 -31 -351 0 -350 0 6 32 c15 75 88 173 166 221
91 57 228 60 334 8z m-7479 -39 c-8 -8 -45 20 -45 34 0 13 5 11 24 -7 14 -13
23 -25 21 -27z m4391 19 c28 -12 70 -42 93 -65 l42 -43 -25 -37 c-13 -20 -27
-50 -31 -66 l-7 -30 -259 0 c-210 0 -259 3 -259 13 0 8 14 41 31 75 42 86 121
149 214 173 49 13 146 3 201 -20z m-445 1 c-5 -10 -18 -25 -27 -33 -11 -9 -9
-2 6 19 26 35 36 42 21 14z m1759 -37 c0 -2 -10 -9 -22 -15 -22 -11 -22 -10
-4 4 21 17 26 19 26 11z m-745 -55 c21 -22 37 -40 34 -40 -3 0 -23 18 -44 40
-21 22 -37 40 -34 40 3 0 23 -18 44 -40z m-171 -29 c41 -10 89 -50 112 -93
l15 -28 -171 0 c-111 0 -170 4 -170 10 0 22 76 91 115 105 48 17 49 17 99 6z
m736 -26 c0 -2 -10 -9 -22 -15 -22 -11 -22 -10 -4 4 21 17 26 19 26 11z m-50
-30 c0 -2 -10 -9 -22 -15 -22 -11 -22 -10 -4 4 21 17 26 19 26 11z m-5940 -57
c0 -13 -23 -5 -28 10 -2 7 2 10 12 6 9 -3 16 -11 16 -16z m4297 -10 c-3 -7 -5
-2 -5 12 0 14 2 19 5 13 2 -7 2 -19 0 -25z m-4101 -1 c4 -4 2 -7 -4 -7 -6 0
-9 -7 -6 -15 4 -8 1 -15 -6 -15 -17 0 -42 28 -35 40 6 10 40 8 51 -3z m5562 6
c-49 -2 -127 -2 -175 0 -49 1 -9 3 87 3 96 0 136 -2 88 -3z m1075 0 c-122 -2
-324 -2 -450 0 -125 1 -25 2 222 2 248 0 350 -1 228 -2z m-2786 -10 c-20 -2
-52 -2 -70 0 -17 2 0 4 38 4 39 0 53 -2 32 -4z"/>
<path d="M3181 6280 c0 -109 3 -138 11 -117 12 33 21 34 36 2 9 -18 8 -23 -1
-20 -7 3 -20 -2 -30 -9 -16 -12 -18 -33 -17 -205 0 -195 8 -255 46 -347 81
-196 288 -395 554 -535 360 -190 797 -292 1300 -306 651 -17 1225 124 1649
405 93 62 240 201 288 272 17 25 52 85 79 135 l48 89 4 391 3 390 -36 -71
c-104 -204 -310 -383 -610 -528 -354 -172 -756 -260 -1240 -273 -461 -12 -874
52 -1250 192 -104 39 -302 134 -377 181 -199 125 -362 293 -434 447 l-24 52 1
-145z m490 -507 c12 -15 12 -16 -5 -10 -14 6 -17 4 -12 -8 6 -18 5 -18 -29 -5
-23 9 -25 13 -15 25 17 20 44 19 61 -2z m449 -367 c0 -16 -52 -57 -66 -52 -8
3 -14 -1 -14 -8 0 -8 -7 -16 -15 -20 -8 -3 -12 -12 -9 -19 3 -8 -1 -17 -9 -20
-10 -4 -17 4 -21 25 -5 27 -1 35 31 64 21 18 44 33 51 34 6 0 12 7 12 15 0 13
3 13 20 3 11 -7 20 -17 20 -22z m840 2 c0 -6 -6 -5 -15 2 -8 7 -15 14 -15 16
0 2 7 1 15 -2 8 -4 15 -11 15 -16z m-565 -528 c3 -5 2 -10 -4 -10 -5 0 -13 5
-16 10 -3 6 -2 10 4 10 5 0 13 -4 16 -10z"/>
<path d="M11132 6334 c-27 -19 -52 -65 -52 -96 0 -35 34 -83 69 -97 126 -53
216 136 94 198 -31 16 -85 14 -111 -5z"/>
<path d="M2981 5644 c-38 -48 -24 -111 30 -140 87 -45 170 62 108 140 -17 22
-28 26 -69 26 -41 0 -52 -4 -69 -26z"/>
<path d="M4235 3990 c-3 -5 -1 -10 4 -10 6 0 11 5 11 10 0 6 -2 10 -4 10 -3 0
-8 -4 -11 -10z"/>
</g>
</svg>
